<svg xmlns="http://www.w3.org/2000/svg" xmlns:xlink="http://www.w3.org/1999/xlink" width="2000" zoomAndPan="magnify" viewBox="0 0 1500 1499.999933" height="2000" preserveAspectRatio="xMidYMid meet" version="1.0"><defs><clipPath id="597369428b"><path d="M 684 186.632812 L 800 186.632812 L 800 298 L 684 298 Z M 684 186.632812 " clip-rule="nonzero"/></clipPath><clipPath id="c358d3f181"><path d="M 250.011719 307 L 1249.761719 307 L 1249.761719 1313.132812 L 250.011719 1313.132812 Z M 250.011719 307 " clip-rule="nonzero"/></clipPath></defs><path fill="#000000" d="M 747.089844 792.050781 C 745.179688 793.765625 743.464844 796.691406 743.398438 799.363281 C 743.335938 802.097656 744.035156 804.960938 746.136719 806.867188 C 748.171875 808.777344 750.714844 809.855469 753.574219 809.855469 C 756.4375 809.855469 759.554688 808.648438 761.652344 806.742188 C 763.558594 805.023438 765.277344 802.097656 765.339844 799.425781 C 765.40625 796.691406 764.707031 793.832031 762.605469 791.921875 C 760.570312 790.015625 758.027344 788.933594 755.164062 788.933594 C 752.304688 788.933594 749.1875 790.140625 747.089844 792.050781 Z M 747.089844 792.050781 " fill-opacity="1" fill-rule="nonzero"/><g clip-path="url(#597369428b)"><path fill="#000000" d="M 692.394531 271.621094 C 697.929688 280.523438 706.578125 287.519531 716.054688 291.714844 C 721.140625 293.941406 726.417969 295.597656 731.953125 296.421875 C 738.058594 297.3125 744.035156 297.378906 750.207031 296.675781 C 761.90625 295.214844 773.035156 289.9375 781.621094 281.859375 C 791.796875 272.320312 798.410156 259.28125 799.492188 245.289062 C 800 238.613281 799.367188 231.742188 797.394531 225.382812 C 795.230469 218.386719 791.988281 212.15625 787.347656 206.496094 C 783.277344 201.46875 778.125 197.207031 772.589844 193.964844 C 769.601562 192.183594 766.359375 190.785156 763.117188 189.578125 C 761.714844 189.066406 760.316406 188.621094 758.917969 188.242188 C 756.945312 187.734375 754.910156 187.476562 752.941406 187.289062 C 750.078125 186.90625 747.152344 186.84375 744.289062 187.03125 C 742.320312 187.160156 740.539062 187.734375 739.011719 189.066406 C 737.804688 190.210938 736.660156 192.121094 736.59375 193.839844 C 736.46875 197.78125 739.328125 200.453125 743.210938 200.707031 C 743.910156 200.707031 744.671875 200.832031 745.371094 200.898438 C 749.761719 201.535156 754.210938 202.742188 758.34375 204.332031 C 761.90625 205.859375 765.214844 207.765625 768.332031 209.992188 C 771.320312 212.410156 773.992188 215.078125 776.34375 218.132812 C 778.570312 221.3125 780.351562 224.746094 781.75 228.308594 C 783.148438 232.441406 783.976562 236.703125 784.292969 241.027344 C 784.421875 244.71875 784.167969 248.46875 783.464844 252.09375 C 782.703125 255.273438 781.621094 258.390625 780.222656 261.378906 C 778.570312 264.496094 776.660156 267.421875 774.4375 270.09375 C 772.019531 272.828125 769.285156 275.246094 766.359375 277.40625 C 763.625 279.1875 760.761719 280.714844 757.710938 281.984375 C 754.148438 283.257812 750.394531 284.148438 746.644531 284.722656 C 743.972656 284.976562 741.300781 285.167969 738.628906 285.039062 C 737.230469 285.039062 735.769531 284.910156 734.371094 284.722656 C 734.371094 284.722656 734.242188 284.722656 734.113281 284.722656 C 734.304688 284.722656 734.371094 284.722656 734.558594 284.785156 C 734.179688 284.785156 733.859375 284.65625 733.480469 284.65625 C 732.78125 284.53125 732.078125 284.402344 731.378906 284.277344 C 728.519531 283.703125 725.65625 282.941406 722.921875 281.984375 C 722.605469 281.859375 722.285156 281.730469 721.902344 281.605469 C 721.839844 281.605469 721.714844 281.539062 721.585938 281.476562 C 721.078125 281.285156 720.570312 281.03125 720.125 280.839844 C 718.789062 280.269531 717.515625 279.570312 716.179688 278.871094 C 714.910156 278.171875 713.636719 277.40625 712.429688 276.582031 C 711.855469 276.199219 711.347656 275.816406 710.773438 275.433594 C 710.710938 275.433594 710.648438 275.308594 710.582031 275.308594 C 710.328125 275.117188 710.140625 274.925781 709.882812 274.800781 C 707.660156 272.953125 705.558594 270.984375 703.714844 268.757812 C 703.332031 268.3125 702.953125 267.867188 702.570312 267.359375 C 702.570312 267.292969 702.445312 267.230469 702.378906 267.167969 C 701.871094 266.40625 701.363281 265.640625 700.851562 264.878906 C 699.835938 263.160156 698.945312 261.378906 698.183594 259.597656 C 697.992188 259.152344 697.863281 258.773438 697.671875 258.328125 C 697.671875 258.199219 697.609375 258.136719 697.546875 258.007812 C 697.546875 258.007812 697.546875 257.945312 697.546875 257.882812 C 697.226562 256.863281 696.910156 255.910156 696.65625 254.894531 C 696.082031 252.859375 695.703125 250.824219 695.382812 248.722656 C 695.257812 247.707031 695.128906 246.625 695.003906 245.609375 C 695.003906 245.097656 694.9375 244.652344 694.875 244.144531 C 694.875 243.890625 694.875 243.574219 694.875 243.316406 C 694.8125 241.09375 694.875 238.929688 695.003906 236.703125 C 695.195312 234.476562 695.511719 232.1875 695.894531 229.960938 C 695.894531 229.898438 695.894531 229.769531 695.894531 229.644531 C 695.894531 229.515625 695.894531 229.390625 695.957031 229.328125 C 696.082031 228.753906 696.210938 228.179688 696.402344 227.609375 C 696.71875 226.527344 697.039062 225.382812 697.355469 224.300781 C 698.054688 222.140625 698.882812 220.105469 699.898438 218.070312 C 699.898438 218.070312 699.898438 218.003906 699.898438 217.941406 C 700.027344 217.75 700.089844 217.558594 700.21875 217.371094 C 700.472656 216.859375 700.726562 216.414062 701.042969 215.90625 C 701.617188 214.890625 702.253906 213.933594 702.890625 212.980469 C 703.523438 212.027344 704.222656 211.074219 704.921875 210.183594 C 705.113281 209.992188 705.304688 209.738281 705.433594 209.546875 C 705.433594 209.546875 705.625 209.355469 705.6875 209.230469 C 705.75 209.101562 705.878906 209.039062 705.878906 208.972656 C 706.070312 208.71875 706.324219 208.53125 706.515625 208.273438 C 708.167969 206.558594 709.949219 204.96875 711.792969 203.503906 C 711.984375 203.378906 712.175781 203.1875 712.429688 203.058594 C 712.429688 203.058594 712.554688 202.996094 712.617188 202.933594 C 712.617188 202.933594 713.128906 202.613281 713.191406 202.550781 C 713.445312 202.359375 713.765625 202.167969 714.019531 201.980469 C 715.035156 201.34375 716.117188 200.707031 717.199219 200.132812 C 718.34375 199.5625 719.488281 198.988281 720.695312 198.480469 C 721.015625 198.355469 721.269531 198.226562 721.585938 198.097656 C 721.648438 198.097656 721.585938 198.097656 721.648438 198.097656 C 721.648438 198.097656 721.648438 198.097656 721.714844 198.097656 C 722.347656 197.84375 723.050781 197.652344 723.683594 197.398438 C 724.957031 196.953125 726.292969 196.636719 727.566406 196.316406 C 729.34375 195.875 730.933594 193.964844 730.488281 192.058594 C 729.980469 190.085938 728.136719 189.195312 726.230469 189.578125 C 716.945312 191.546875 708.105469 195.9375 701.296875 202.613281 C 695.066406 208.71875 690.488281 216.480469 687.816406 224.8125 C 685.207031 233.015625 684.382812 241.664062 685.207031 250.25 C 685.90625 257.753906 688.070312 265.449219 692.078125 271.875 Z M 721.585938 281.285156 C 721.269531 281.160156 721.078125 281.097656 721.585938 281.285156 Z M 721.585938 281.285156 " fill-opacity="1" fill-rule="nonzero"/></g><path fill="#000000" d="M 310.175781 601.507812 C 310.175781 601.507812 310.175781 601.570312 310.175781 601.632812 C 310.558594 600.871094 310.558594 600.871094 310.429688 601.125 C 310.429688 601.1875 310.367188 601.253906 310.300781 601.316406 C 310.300781 601.316406 310.300781 601.445312 310.238281 601.507812 Z M 310.175781 601.507812 " fill-opacity="1" fill-rule="nonzero"/><g clip-path="url(#c358d3f181)"><path fill="#000000" d="M 1249 768.074219 C 1248.171875 752.425781 1246.773438 736.910156 1244.609375 721.390625 C 1242.511719 706.382812 1239.777344 691.371094 1236.40625 676.617188 C 1233.035156 661.988281 1229.03125 647.488281 1224.324219 633.179688 C 1219.488281 618.425781 1214.019531 603.796875 1207.789062 589.550781 C 1201.808594 575.8125 1195.195312 562.332031 1187.882812 549.230469 C 1180.632812 536.128906 1172.683594 523.472656 1164.160156 511.195312 C 1155.191406 498.347656 1145.589844 486.011719 1135.414062 474.117188 C 1125.554688 462.605469 1114.871094 451.796875 1103.804688 441.554688 C 1092.039062 430.679688 1079.640625 420.566406 1066.730469 411.09375 C 1052.484375 400.597656 1037.539062 391.25 1022.148438 382.472656 C 1005.039062 372.742188 987.550781 363.710938 969.679688 355.441406 C 951.425781 347.046875 932.792969 339.414062 913.839844 332.867188 C 895.523438 326.570312 876.890625 321.226562 858.003906 317.09375 C 838.605469 312.894531 818.953125 309.96875 799.175781 308.507812 C 790.015625 307.808594 780.859375 307.425781 771.636719 307.488281 C 766.996094 307.488281 762.351562 307.679688 757.773438 307.933594 C 755.421875 308.0625 753.066406 308.1875 750.714844 308.378906 C 747.851562 308.570312 744.988281 308.699219 742.128906 309.144531 C 742.765625 309.078125 743.398438 309.015625 743.972656 308.953125 C 738.25 309.398438 732.523438 310.289062 726.863281 311.242188 C 724.320312 311.6875 721.714844 312.132812 719.167969 312.578125 C 717.898438 312.832031 716.625 313.085938 715.355469 313.339844 C 713.636719 313.660156 711.730469 313.914062 710.203125 314.804688 C 710.710938 314.613281 711.21875 314.421875 711.730469 314.230469 C 710.773438 314.421875 709.820312 314.546875 708.929688 314.738281 C 706.003906 315.25 703.398438 318.683594 704.160156 321.671875 C 704.988281 324.914062 707.976562 326.316406 711.15625 325.742188 C 711.792969 325.613281 712.492188 325.488281 713.128906 325.359375 C 714.84375 325.359375 716.6875 325.042969 718.40625 324.789062 C 724.828125 324.023438 731.253906 323.453125 737.738281 323.070312 C 744.355469 322.6875 750.96875 322.179688 757.582031 321.988281 C 770.875 321.609375 784.167969 321.863281 797.394531 322.816406 C 804.515625 323.324219 811.640625 324.089844 818.761719 324.980469 C 834.027344 327.015625 849.164062 329.875 864.109375 333.5 C 879.5625 337.253906 894.761719 341.832031 909.769531 347.046875 C 918.039062 349.910156 926.242188 353.027344 934.382812 356.269531 C 953.015625 363.839844 971.332031 372.359375 989.203125 381.644531 C 1007.203125 390.996094 1024.945312 400.917969 1041.863281 412.109375 C 1049.175781 416.941406 1056.300781 422.03125 1063.292969 427.375 C 1075.632812 436.847656 1087.460938 447.023438 1098.71875 457.773438 C 1109.847656 468.523438 1120.40625 479.90625 1130.328125 491.800781 C 1135.667969 498.222656 1140.820312 504.835938 1145.84375 511.578125 C 1155.828125 525.253906 1165.050781 539.5 1173.382812 554.191406 C 1181.839844 569.070312 1189.472656 584.460938 1196.214844 600.234375 C 1199.902344 608.882812 1203.335938 617.597656 1206.515625 626.4375 C 1209.570312 635.085938 1212.429688 643.800781 1215.039062 652.578125 C 1217.707031 661.671875 1220.125 670.894531 1222.289062 680.117188 C 1224.449219 689.402344 1226.359375 698.8125 1228.011719 708.226562 C 1229.664062 717.640625 1231.0625 727.050781 1232.210938 736.527344 C 1233.355469 746.003906 1234.246094 755.542969 1234.816406 765.082031 C 1234.816406 765.847656 1234.878906 766.546875 1234.945312 767.308594 C 1235.453125 776.59375 1235.769531 785.945312 1235.835938 795.292969 C 1235.835938 804.707031 1235.707031 814.117188 1235.261719 823.53125 C 1234.816406 833.007812 1234.117188 842.417969 1233.226562 851.832031 C 1232.273438 861.246094 1231.128906 870.65625 1229.730469 880.007812 C 1228.328125 889.355469 1226.613281 898.703125 1224.703125 907.992188 C 1224.578125 908.625 1224.449219 909.324219 1224.324219 909.960938 C 1220.890625 926.050781 1216.691406 942.015625 1211.730469 957.660156 C 1206.644531 973.878906 1200.664062 989.84375 1193.921875 1005.421875 C 1190.234375 1013.945312 1186.355469 1022.339844 1182.222656 1030.671875 C 1174.78125 1045.492188 1166.640625 1059.992188 1157.800781 1073.984375 C 1148.832031 1088.230469 1139.230469 1102.03125 1128.925781 1115.386719 C 1123.332031 1122.699219 1117.480469 1129.824219 1111.4375 1136.753906 C 1101.007812 1148.777344 1090.070312 1160.351562 1078.558594 1171.417969 C 1066.855469 1182.609375 1054.644531 1193.296875 1041.925781 1203.34375 C 1034.929688 1208.875 1027.808594 1214.15625 1020.558594 1219.242188 C 1008.726562 1227.511719 996.582031 1235.207031 984.117188 1242.328125 C 971.332031 1249.644531 958.230469 1256.320312 944.8125 1262.363281 C 937.5 1265.605469 930.121094 1268.660156 922.679688 1271.585938 C 909.769531 1276.480469 896.667969 1280.808594 883.378906 1284.433594 C 869.386719 1288.25 855.203125 1291.300781 840.957031 1293.71875 C 832.5 1295.179688 824.042969 1296.390625 815.519531 1297.40625 C 798.601562 1299.378906 781.621094 1300.585938 764.640625 1300.96875 C 747.28125 1301.347656 729.917969 1300.96875 712.621094 1299.632812 C 703.144531 1298.933594 693.667969 1297.980469 684.191406 1296.769531 C 668.800781 1294.734375 653.472656 1292.0625 638.335938 1288.628906 C 623.136719 1285.195312 608.066406 1280.996094 593.246094 1276.039062 C 585.234375 1273.367188 577.347656 1270.441406 569.523438 1267.324219 C 553.816406 1260.964844 538.488281 1253.652344 523.671875 1245.253906 C 510.378906 1237.75 497.40625 1229.546875 484.8125 1220.832031 C 478.136719 1216.191406 471.585938 1211.421875 465.097656 1206.523438 C 457.339844 1200.546875 449.707031 1194.375 442.265625 1188.015625 C 434.699219 1181.527344 427.320312 1174.789062 420.070312 1167.855469 C 412.886719 1160.921875 405.890625 1153.800781 399.085938 1146.484375 C 392.34375 1139.234375 385.855469 1131.792969 379.496094 1124.226562 C 373.199219 1116.660156 367.09375 1108.964844 361.242188 1101.078125 C 360.800781 1100.503906 360.355469 1099.867188 359.910156 1099.296875 C 354.121094 1091.410156 348.523438 1083.332031 343.183594 1075.128906 C 337.839844 1066.925781 332.6875 1058.527344 327.792969 1050.007812 C 322.894531 1041.546875 318.316406 1032.898438 313.925781 1024.183594 C 309.539062 1015.472656 305.40625 1006.632812 301.527344 997.664062 C 297.648438 988.761719 294.085938 979.667969 290.714844 970.570312 C 290.460938 969.808594 290.140625 969.109375 289.886719 968.34375 C 285.4375 955.945312 281.492188 943.351562 278.058594 930.695312 C 274.625 917.976562 271.761719 905.066406 269.410156 892.089844 C 267.054688 879.117188 265.210938 866.078125 263.875 852.914062 C 263.558594 849.605469 263.242188 846.300781 262.984375 842.992188 C 262.859375 841.339844 262.730469 839.683594 262.605469 838.03125 C 262.605469 837.203125 262.476562 836.441406 262.476562 835.613281 C 262.476562 835.234375 262.476562 834.851562 262.414062 834.46875 C 262.414062 834.40625 262.414062 834.277344 262.414062 834.214844 C 262.03125 827.601562 261.777344 820.988281 261.714844 814.308594 C 261.523438 801.082031 261.90625 787.789062 262.796875 774.558594 C 263.75 761.269531 265.277344 747.976562 267.3125 734.746094 C 268.390625 728.070312 269.535156 721.453125 270.9375 714.839844 C 271.125 714.015625 271.253906 713.25 271.445312 712.421875 L 271.636719 711.46875 C 271.636719 711.46875 271.699219 711.152344 271.761719 710.960938 C 272.144531 709.308594 272.460938 707.652344 272.84375 706 C 273.605469 702.691406 274.371094 699.386719 275.195312 696.078125 C 278.503906 682.851562 282.445312 669.683594 286.898438 656.773438 C 291.476562 643.609375 296.628906 630.699219 302.351562 618.042969 C 303.816406 614.800781 305.277344 611.621094 306.804688 608.441406 C 307.566406 606.785156 308.394531 605.132812 309.222656 603.542969 C 309.539062 602.84375 309.859375 602.207031 310.238281 601.507812 C 310.238281 601.570312 310.238281 601.632812 310.113281 601.699219 C 310.113281 601.570312 310.238281 601.445312 310.300781 601.378906 C 310.300781 601.253906 310.429688 601.125 310.492188 601.0625 C 310.683594 600.679688 310.875 600.363281 311.066406 599.980469 C 314.371094 593.492188 317.808594 587.070312 321.367188 580.773438 C 328.746094 567.800781 336.757812 555.144531 345.34375 542.933594 C 353.867188 530.785156 363.023438 519.082031 372.691406 507.824219 C 372.945312 507.507812 374.21875 506.046875 372.882812 507.570312 C 373.136719 507.253906 373.390625 506.9375 373.644531 506.679688 C 374.28125 505.917969 374.980469 505.15625 375.617188 504.390625 C 376.824219 503.054688 378.035156 501.65625 379.242188 500.320312 C 381.722656 497.585938 384.203125 494.851562 386.746094 492.117188 C 391.835938 486.710938 397.050781 481.433594 402.328125 476.21875 C 412.886719 465.851562 423.886719 455.992188 435.335938 446.582031 C 441.058594 441.875 446.910156 437.230469 452.824219 432.777344 C 455.75 430.554688 458.675781 428.390625 461.664062 426.230469 C 463.191406 425.082031 464.78125 424.003906 466.308594 422.859375 C 467.070312 422.347656 467.769531 421.777344 468.53125 421.269531 C 468.851562 421.011719 469.167969 420.824219 469.550781 420.566406 C 467.960938 421.714844 469.421875 420.695312 469.804688 420.378906 C 482.015625 411.855469 494.609375 403.777344 507.453125 396.210938 C 520.300781 388.640625 533.339844 381.519531 546.628906 374.839844 C 559.921875 368.164062 573.46875 361.929688 587.207031 356.207031 C 590.640625 354.742188 594.136719 353.34375 597.570312 351.945312 C 599.351562 351.246094 601.132812 350.546875 602.914062 349.847656 C 603.296875 349.71875 603.675781 349.527344 604.058594 349.402344 C 602.660156 349.972656 604.058594 349.402344 604.441406 349.273438 C 604.886719 349.148438 605.265625 348.957031 605.710938 348.765625 C 606.222656 348.574219 606.667969 348.382812 607.175781 348.191406 C 607.300781 348.128906 607.429688 348.066406 607.554688 348 C 614.425781 345.394531 621.230469 342.914062 628.160156 340.496094 C 642.21875 335.664062 656.398438 331.277344 670.773438 327.332031 C 677.703125 325.425781 684.636719 323.644531 691.632812 321.988281 C 693.414062 321.542969 695.003906 319.636719 694.558594 317.730469 C 694.046875 315.820312 692.203125 314.804688 690.296875 315.25 C 672.617188 319.128906 655.128906 323.644531 637.828125 328.921875 C 620.210938 334.265625 602.785156 340.304688 585.679688 347.113281 C 568.824219 353.789062 552.226562 361.167969 536.007812 369.308594 C 519.726562 377.382812 503.894531 386.226562 488.4375 395.828125 C 472.792969 405.558594 457.59375 415.988281 442.964844 427.054688 C 428.59375 437.996094 414.730469 449.570312 401.5 461.90625 C 388.082031 474.4375 375.425781 487.730469 363.46875 501.65625 C 351.640625 515.394531 340.636719 529.832031 330.460938 544.839844 C 320.414062 559.722656 311.191406 575.242188 302.988281 591.269531 C 294.976562 606.847656 287.660156 622.8125 281.367188 639.222656 C 275.386719 654.738281 270.234375 670.640625 265.910156 686.730469 C 261.585938 703.011719 258.089844 719.546875 255.546875 736.144531 C 253.066406 752.171875 251.410156 768.328125 250.648438 784.546875 C 249.886719 800.636719 249.949219 816.789062 250.777344 832.878906 C 251.664062 849.351562 253.320312 865.761719 255.863281 882.042969 C 258.34375 897.816406 261.585938 913.523438 265.53125 929.042969 C 269.664062 945.070312 274.496094 960.839844 280.09375 976.359375 C 285.5 991.496094 291.667969 1006.378906 298.472656 1020.941406 C 305.34375 1035.632812 312.910156 1050.007812 321.175781 1064 C 329.382812 1077.992188 338.285156 1091.535156 347.761719 1104.703125 C 352.660156 1111.507812 357.683594 1118.183594 362.898438 1124.734375 C 362.578125 1124.289062 362.261719 1123.84375 361.945312 1123.398438 C 366.648438 1129.824219 371.992188 1135.867188 377.207031 1141.90625 C 382.167969 1147.632812 387.253906 1153.226562 392.46875 1158.699219 C 402.835938 1169.699219 413.710938 1180.195312 425.03125 1190.242188 C 436.796875 1200.734375 449.007812 1210.59375 461.601562 1220.070312 C 474.003906 1229.292969 486.785156 1238.003906 499.886719 1246.144531 C 514.257812 1255.050781 529.078125 1263.191406 544.40625 1270.3125 C 561.003906 1278.007812 578.175781 1284.558594 595.664062 1290.09375 C 612.835938 1295.5625 630.324219 1299.949219 648.003906 1303.386719 C 666.320312 1306.945312 684.890625 1309.554688 703.523438 1311.207031 C 721.585938 1312.796875 739.773438 1313.496094 757.902344 1313.242188 C 775.898438 1313.050781 793.832031 1311.90625 811.703125 1309.9375 C 829.511719 1307.964844 847.253906 1305.164062 864.808594 1301.351562 C 880.324219 1297.980469 895.589844 1293.652344 910.660156 1288.566406 C 926.179688 1283.289062 941.441406 1277.183594 956.261719 1270.25 C 970.570312 1263.570312 984.496094 1256.195312 998.042969 1248.117188 C 1012.097656 1239.722656 1025.644531 1230.628906 1038.808594 1220.898438 C 1051.59375 1211.484375 1063.867188 1201.4375 1075.632812 1190.816406 C 1087.398438 1180.195312 1098.71875 1169.0625 1109.464844 1157.425781 C 1120.597656 1145.339844 1131.21875 1132.75 1141.265625 1119.710938 C 1150.933594 1107.117188 1160.027344 1094.144531 1168.484375 1080.726562 C 1176.941406 1067.304688 1184.828125 1053.503906 1192.078125 1039.324219 C 1199.519531 1024.820312 1206.324219 1009.941406 1212.367188 994.804688 C 1218.15625 980.238281 1223.304688 965.355469 1227.695312 950.285156 C 1232.144531 935.082031 1235.835938 919.757812 1239.015625 904.238281 C 1242.066406 889.292969 1244.421875 874.21875 1246.199219 859.082031 C 1247.980469 843.945312 1249.0625 828.683594 1249.570312 813.417969 C 1250.082031 798.21875 1249.890625 782.953125 1249.0625 767.753906 Z M 1249 768.074219 " fill-opacity="1" fill-rule="nonzero"/></g><path fill="#000000" d="M 705.179688 409.628906 C 705.179688 409.628906 705.050781 409.3125 704.921875 409.121094 C 704.796875 408.929688 704.667969 408.675781 704.542969 408.484375 C 704.351562 408.292969 704.160156 408.167969 703.96875 407.976562 C 703.84375 407.847656 703.714844 407.785156 703.589844 407.722656 C 703.332031 407.59375 703.015625 407.53125 702.761719 407.464844 C 702.632812 407.464844 702.445312 407.402344 702.316406 407.402344 C 702.1875 407.402344 702.125 407.402344 702 407.402344 C 701.808594 407.402344 701.679688 407.464844 701.488281 407.464844 C 701.363281 407.464844 701.171875 407.464844 701.042969 407.464844 C 687.5625 410.390625 674.269531 413.890625 661.105469 417.960938 C 647.558594 422.15625 634.203125 426.992188 621.101562 432.398438 C 608.191406 437.738281 595.472656 443.589844 583.070312 450.015625 C 570.542969 456.4375 558.332031 463.433594 546.4375 471.003906 C 534.292969 478.699219 522.464844 486.964844 511.078125 495.679688 C 499.886719 504.199219 489.074219 513.230469 478.773438 522.707031 C 468.46875 532.121094 458.675781 542.042969 449.328125 552.472656 C 439.785156 563.09375 430.691406 574.160156 422.296875 585.734375 C 414.09375 596.929688 406.460938 608.566406 399.53125 620.585938 C 392.40625 632.863281 385.917969 645.582031 380.257812 658.554688 C 374.664062 671.273438 369.828125 684.375 365.757812 697.667969 C 361.5625 711.34375 358.191406 725.207031 355.519531 739.261719 C 352.976562 752.683594 351.132812 766.226562 350.050781 779.839844 C 349.351562 788.804688 349.035156 797.773438 348.96875 806.804688 C 348.96875 806.996094 348.90625 807.121094 348.90625 807.3125 C 348.90625 807.503906 348.96875 807.632812 348.96875 807.820312 C 348.96875 812.019531 348.84375 816.21875 348.96875 820.414062 C 349.351562 834.152344 350.433594 847.890625 352.214844 861.5 C 353.929688 874.664062 356.347656 887.765625 359.398438 900.738281 C 362.453125 913.714844 366.140625 926.5625 370.402344 939.152344 C 374.789062 952.0625 379.8125 964.785156 385.410156 977.1875 C 390.945312 989.332031 397.050781 1001.226562 403.726562 1012.800781 C 410.40625 1024.375 417.65625 1035.632812 425.351562 1046.507812 C 429.355469 1052.167969 433.554688 1057.703125 437.816406 1063.171875 C 437.496094 1062.726562 437.179688 1062.28125 436.859375 1061.835938 C 440.804688 1067.242188 445.257812 1072.394531 449.644531 1077.417969 C 453.714844 1082.125 457.910156 1086.765625 462.171875 1091.28125 C 470.820312 1100.441406 479.917969 1109.152344 489.328125 1117.484375 C 499.1875 1126.199219 509.425781 1134.402344 519.984375 1142.160156 C 530.285156 1149.730469 540.96875 1156.851562 551.910156 1163.46875 C 563.800781 1170.652344 576.074219 1177.078125 588.730469 1182.675781 C 602.214844 1188.589844 616.015625 1193.675781 630.132812 1197.9375 C 643.996094 1202.070312 658.050781 1205.441406 672.296875 1208.050781 C 687.054688 1210.722656 701.933594 1212.628906 716.878906 1213.773438 C 731.316406 1214.855469 745.816406 1215.238281 760.316406 1214.917969 C 775.199219 1214.601562 790.082031 1213.390625 804.898438 1211.613281 C 818.507812 1209.957031 832.054688 1207.667969 845.410156 1204.550781 C 857.8125 1201.691406 870.023438 1198.128906 881.980469 1193.867188 C 894.378906 1189.480469 906.589844 1184.453125 918.421875 1178.792969 C 929.804688 1173.324219 940.933594 1167.28125 951.746094 1160.730469 C 963 1153.863281 973.878906 1146.421875 984.371094 1138.535156 C 994.484375 1130.90625 1004.277344 1122.765625 1013.625 1114.242188 C 1022.972656 1105.65625 1032.003906 1096.6875 1040.527344 1087.277344 C 1049.367188 1077.542969 1057.824219 1067.433594 1065.710938 1056.9375 C 1073.40625 1046.761719 1080.65625 1036.269531 1087.398438 1025.394531 C 1094.074219 1014.644531 1100.308594 1003.644531 1105.96875 992.320312 C 1111.882812 980.554688 1117.351562 968.535156 1122.121094 956.261719 C 1126.703125 944.621094 1130.707031 932.730469 1134.140625 920.710938 C 1137.640625 908.5 1140.566406 896.160156 1143.046875 883.695312 C 1145.398438 871.675781 1147.308594 859.589844 1148.640625 847.445312 C 1149.976562 835.296875 1150.867188 823.148438 1151.1875 810.9375 C 1151.503906 798.789062 1151.3125 786.578125 1150.675781 774.433594 C 1149.976562 761.839844 1148.769531 749.246094 1146.988281 736.71875 C 1145.273438 724.761719 1143.046875 712.867188 1140.3125 701.039062 C 1137.578125 689.335938 1134.332031 677.761719 1130.582031 666.378906 C 1126.636719 654.421875 1122.1875 642.65625 1117.097656 631.144531 C 1112.328125 620.203125 1106.984375 609.457031 1101.136719 599.089844 C 1095.285156 588.597656 1088.859375 578.355469 1081.929688 568.5 C 1074.742188 558.257812 1067.046875 548.273438 1058.78125 538.863281 C 1050.765625 529.703125 1042.308594 520.992188 1033.339844 512.785156 C 1023.863281 504.074219 1013.878906 495.933594 1003.449219 488.363281 C 991.9375 479.90625 979.855469 472.402344 967.390625 465.339844 C 953.714844 457.582031 939.726562 450.394531 925.414062 443.78125 C 910.726562 437.039062 895.714844 430.933594 880.453125 425.65625 C 865.761719 420.632812 850.816406 416.371094 835.679688 413.0625 C 820.226562 409.757812 804.453125 407.402344 788.683594 406.257812 C 781.304688 405.75 773.863281 405.367188 766.421875 405.496094 C 762.734375 405.496094 759.046875 405.6875 755.355469 405.875 C 751.09375 406.066406 746.769531 406.257812 742.574219 406.894531 C 743.210938 406.832031 743.84375 406.765625 744.417969 406.640625 C 739.710938 407.019531 735.003906 407.785156 730.300781 408.613281 C 728.265625 408.992188 726.230469 409.375 724.195312 409.757812 C 721.714844 410.265625 718.789062 410.519531 716.5625 411.726562 C 717.070312 411.535156 717.578125 411.347656 718.089844 411.15625 C 717.390625 411.28125 716.691406 411.410156 715.988281 411.535156 C 713.066406 412.046875 710.457031 415.480469 711.21875 418.46875 C 712.046875 421.710938 715.035156 423.113281 718.214844 422.539062 C 718.660156 422.476562 719.167969 422.347656 719.613281 422.285156 C 719.933594 422.285156 720.25 422.285156 720.695312 422.222656 C 721.078125 422.222656 721.394531 422.15625 721.777344 422.09375 C 719.679688 422.414062 722.160156 422.09375 722.667969 421.96875 C 724.128906 421.777344 725.59375 421.648438 727.054688 421.523438 C 729.855469 421.269531 732.652344 421.011719 735.449219 420.886719 C 737.039062 420.757812 738.695312 420.695312 740.347656 420.632812 C 739.964844 441.808594 739.519531 462.988281 739.203125 484.230469 C 739.203125 487.410156 739.203125 490.589844 739.203125 493.769531 C 739.203125 495.359375 739.203125 496.949219 739.203125 498.539062 C 739.203125 500.640625 739.519531 502.675781 739.773438 504.710938 C 740.03125 506.425781 741.492188 508.335938 743.019531 509.097656 C 744.480469 509.859375 745.945312 510.117188 747.597656 509.925781 C 749.25 509.734375 750.96875 509.097656 752.175781 507.890625 C 753.640625 506.488281 754.339844 504.898438 754.65625 502.929688 C 754.910156 501.53125 755.164062 500.195312 755.230469 498.792969 C 755.230469 497.332031 755.355469 495.871094 755.421875 494.40625 L 755.738281 486.074219 C 755.992188 480.476562 755.929688 474.816406 756.054688 469.222656 C 756.246094 458.15625 756.4375 447.023438 756.566406 435.960938 C 756.628906 430.617188 756.753906 425.273438 756.820312 419.933594 C 766.613281 419.742188 776.34375 419.867188 786.074219 420.503906 C 792.050781 420.886719 798.03125 421.523438 803.945312 422.285156 C 816.09375 423.9375 828.175781 426.226562 840.132812 429.089844 C 852.46875 432.078125 864.617188 435.769531 876.636719 439.902344 C 883.1875 442.191406 889.675781 444.671875 896.097656 447.214844 C 911.042969 453.257812 925.671875 460.0625 939.980469 467.503906 C 954.351562 475.007812 968.597656 482.957031 982.144531 491.925781 C 988.058594 495.804688 993.78125 499.941406 999.441406 504.199219 C 1009.238281 511.707031 1018.585938 519.78125 1027.488281 528.304688 C 1036.457031 536.953125 1044.980469 546.175781 1052.992188 555.714844 C 1057.253906 560.804688 1061.324219 566.082031 1065.265625 571.425781 C 1073.214844 582.300781 1080.59375 593.683594 1087.269531 605.449219 C 1094.074219 617.46875 1100.246094 629.871094 1105.652344 642.59375 C 1108.578125 649.460938 1111.3125 656.394531 1113.792969 663.390625 C 1118.75 677.445312 1122.949219 691.753906 1126.382812 706.253906 C 1129.882812 721.136719 1132.488281 736.210938 1134.332031 751.410156 C 1135.285156 759.550781 1136.050781 767.753906 1136.558594 775.957031 C 1137.003906 784.226562 1137.195312 792.496094 1137.195312 800.824219 C 1136.304688 800.824219 1135.476562 800.761719 1134.585938 800.699219 C 1131.726562 800.570312 1128.925781 800.445312 1126.066406 800.316406 C 1120.53125 800.0625 1115 800.125 1109.402344 800 C 1098.210938 799.808594 1086.953125 799.617188 1075.761719 799.425781 L 1056.746094 799.109375 C 1054.582031 799.109375 1052.230469 800 1050.640625 801.460938 C 1049.175781 802.796875 1047.90625 804.960938 1047.839844 806.996094 C 1047.714844 811.445312 1051.019531 814.882812 1055.472656 814.945312 C 1077.921875 815.328125 1100.371094 815.835938 1122.820312 816.152344 C 1126 816.152344 1129.183594 816.152344 1132.363281 816.152344 C 1133.886719 816.152344 1135.351562 816.152344 1136.878906 816.152344 C 1136.878906 817.742188 1136.878906 819.269531 1136.8125 820.859375 C 1136.113281 835.996094 1134.652344 851.070312 1132.363281 866.015625 C 1131.152344 874.09375 1129.628906 882.167969 1127.972656 890.183594 C 1125.238281 902.902344 1121.933594 915.558594 1117.988281 928.023438 C 1113.855469 941 1109.085938 953.84375 1103.679688 966.308594 C 1100.753906 973.117188 1097.574219 979.855469 1094.265625 986.535156 C 1088.351562 998.300781 1081.867188 1009.875 1074.804688 1021.003906 C 1067.683594 1032.390625 1059.925781 1043.390625 1051.71875 1054.011719 C 1047.203125 1059.863281 1042.5625 1065.523438 1037.730469 1071.121094 C 1029.398438 1080.726562 1020.621094 1090.011719 1011.398438 1098.785156 C 1002.050781 1107.753906 992.320312 1116.214844 982.144531 1124.226562 C 976.613281 1128.613281 970.953125 1132.8125 965.164062 1136.882812 C 955.75 1143.433594 946.085938 1149.601562 936.164062 1155.261719 C 925.925781 1161.113281 915.429688 1166.457031 904.683594 1171.289062 C 898.894531 1173.898438 892.980469 1176.3125 887.066406 1178.605469 C 876.828125 1182.484375 866.460938 1185.917969 855.902344 1188.78125 C 844.710938 1191.832031 833.328125 1194.3125 821.816406 1196.285156 C 815.074219 1197.429688 808.269531 1198.382812 801.464844 1199.210938 C 787.980469 1200.800781 774.371094 1201.753906 760.761719 1202.070312 C 758.664062 1202.070312 756.566406 1202.070312 754.464844 1202.070312 C 754.464844 1202.070312 754.464844 1202.007812 754.464844 1201.945312 C 754.722656 1200.546875 754.976562 1199.210938 755.039062 1197.8125 C 755.039062 1196.347656 755.164062 1194.886719 755.230469 1193.421875 L 755.546875 1185.089844 C 755.800781 1179.492188 755.738281 1173.832031 755.867188 1168.238281 C 756.054688 1157.171875 756.246094 1146.042969 756.375 1134.976562 L 756.691406 1115.957031 C 756.691406 1113.859375 756.183594 1111.824219 754.65625 1110.296875 C 753.320312 1108.898438 751.03125 1107.945312 749.0625 1108.007812 C 744.925781 1108.136719 740.285156 1111.316406 740.15625 1115.894531 C 739.777344 1138.34375 739.265625 1160.796875 738.949219 1183.246094 C 738.949219 1186.425781 738.949219 1189.605469 738.949219 1192.785156 C 738.949219 1194.375 738.949219 1195.964844 738.949219 1197.554688 C 738.949219 1199.082031 739.140625 1200.609375 739.332031 1202.070312 C 732.460938 1201.882812 725.53125 1201.5625 718.660156 1201.054688 C 711.03125 1200.480469 703.398438 1199.71875 695.765625 1198.699219 C 683.554688 1197.046875 671.34375 1194.949219 659.324219 1192.214844 C 647.113281 1189.480469 635.09375 1186.109375 623.265625 1182.164062 C 616.90625 1180.003906 610.546875 1177.714844 604.3125 1175.167969 C 592.101562 1170.207031 580.210938 1164.546875 568.761719 1158.125 C 558.015625 1152.082031 547.519531 1145.46875 537.34375 1138.410156 C 531.9375 1134.71875 526.660156 1130.839844 521.445312 1126.898438 C 508.980469 1117.359375 497.023438 1107.054688 485.703125 1096.179688 C 474.257812 1085.175781 463.445312 1073.539062 453.332031 1061.328125 C 447.863281 1054.714844 442.523438 1047.90625 437.433594 1041.039062 C 428.402344 1028.699219 420.007812 1015.855469 412.375 1002.5625 C 404.617188 989.078125 397.683594 975.214844 391.515625 960.96875 C 388.144531 953.210938 385.09375 945.386719 382.230469 937.4375 C 378.605469 927.261719 375.363281 916.894531 372.566406 906.464844 C 369.703125 895.78125 367.414062 884.96875 365.503906 874.15625 C 363.597656 863.28125 362.199219 852.339844 361.246094 841.402344 C 360.988281 838.605469 360.800781 835.871094 360.609375 833.070312 C 360.609375 832.625 360.609375 832.179688 360.542969 831.734375 C 360.542969 831.671875 360.542969 831.417969 360.542969 831.226562 C 360.542969 831.164062 360.542969 831.097656 360.542969 831.035156 C 360.542969 830.972656 360.542969 831.035156 360.542969 830.972656 C 360.542969 830.652344 360.542969 830.335938 360.542969 830.019531 C 360.480469 828.617188 360.417969 827.15625 360.355469 825.757812 C 360.226562 822.195312 360.164062 818.570312 360.164062 814.945312 C 381.339844 815.328125 402.457031 815.773438 423.632812 816.089844 C 426.8125 816.089844 429.992188 816.089844 433.171875 816.089844 C 434.761719 816.089844 436.351562 816.089844 437.941406 816.089844 C 440.042969 816.089844 442.203125 815.707031 444.300781 815.453125 C 444.9375 815.199219 445.574219 814.945312 446.210938 814.753906 C 447.164062 814.308594 447.925781 813.671875 448.5 812.847656 C 449.515625 811.703125 450.34375 810.175781 450.34375 808.585938 C 450.34375 807.3125 450.152344 806.105469 449.582031 804.960938 C 448.882812 803.496094 446.910156 801.90625 445.257812 801.652344 C 443.410156 801.335938 441.503906 800.953125 439.660156 800.828125 C 438.195312 800.699219 436.734375 800.699219 435.335938 800.636719 C 432.472656 800.507812 429.675781 800.382812 426.8125 800.253906 C 421.28125 800 415.746094 800.0625 410.152344 799.9375 C 398.957031 799.746094 387.699219 799.554688 376.507812 799.363281 C 371.101562 799.300781 365.695312 799.171875 360.289062 799.109375 C 360.480469 791.222656 360.863281 783.398438 361.625 775.515625 C 362.644531 764.257812 364.167969 753.0625 366.203125 741.996094 C 366.714844 739.199219 367.285156 736.335938 367.859375 733.539062 C 367.984375 732.902344 368.113281 732.203125 368.238281 731.566406 C 368.304688 731.183594 368.367188 730.867188 368.496094 730.484375 C 368.8125 729.023438 369.128906 727.625 369.449219 726.160156 C 370.71875 720.566406 372.183594 714.96875 373.710938 709.433594 C 376.824219 698.242188 380.449219 687.238281 384.585938 676.363281 C 388.65625 665.679688 393.296875 655.25 398.386719 645.007812 C 398.511719 644.691406 398.703125 644.371094 398.832031 644.117188 C 399.148438 643.484375 399.464844 642.78125 399.847656 642.148438 C 400.484375 640.875 401.121094 639.601562 401.820312 638.394531 C 403.15625 635.851562 404.554688 633.308594 405.953125 630.828125 C 408.75 625.867188 411.675781 620.90625 414.664062 616.070312 C 420.707031 606.277344 427.195312 596.800781 434.125 587.578125 C 437.5625 583 441.121094 578.484375 444.746094 574.03125 C 446.589844 571.808594 448.4375 569.582031 450.28125 567.355469 C 450.726562 566.847656 451.171875 566.273438 451.617188 565.765625 C 451.617188 565.765625 451.617188 565.699219 451.679688 565.636719 C 451.808594 565.511719 452.125 565.066406 452.25 565 C 453.207031 563.855469 454.222656 562.777344 455.175781 561.695312 C 462.808594 553.046875 470.824219 544.777344 479.089844 536.699219 C 487.421875 528.621094 496.070312 520.863281 505.039062 513.421875 C 514.003906 505.980469 523.226562 498.859375 532.703125 492.117188 C 533.273438 491.734375 533.847656 491.289062 534.417969 490.910156 C 534.992188 490.527344 535.628906 489.828125 536.265625 489.636719 C 536.265625 489.636719 535.054688 490.527344 535.753906 489.953125 C 535.882812 489.890625 536.007812 489.765625 536.136719 489.699219 C 536.390625 489.507812 536.710938 489.320312 536.964844 489.128906 C 537.597656 488.683594 538.300781 488.238281 538.933594 487.792969 C 541.289062 486.140625 543.703125 484.550781 546.121094 482.960938 C 551.019531 479.714844 555.914062 476.597656 560.941406 473.546875 C 570.796875 467.503906 580.910156 461.71875 591.148438 456.3125 C 601.386719 450.90625 611.882812 445.882812 622.5 441.238281 C 627.78125 438.949219 633.058594 436.722656 638.402344 434.558594 C 639.738281 433.988281 641.136719 433.480469 642.472656 432.90625 C 643.105469 432.652344 643.742188 432.398438 644.378906 432.144531 C 644.699219 432.015625 645.015625 431.890625 645.332031 431.761719 C 645.398438 431.761719 645.460938 431.761719 645.523438 431.699219 C 645.523438 431.699219 645.652344 431.699219 645.714844 431.699219 C 645.714844 431.699219 645.714844 431.699219 645.585938 431.699219 C 648.257812 430.679688 650.992188 429.664062 653.664062 428.710938 C 664.414062 424.828125 675.289062 421.332031 686.226562 418.214844 C 691.503906 416.753906 696.847656 415.289062 702.253906 414.019531 C 702.316406 414.019531 702.445312 413.953125 702.507812 413.890625 C 702.699219 413.890625 702.890625 413.761719 703.015625 413.636719 C 703.269531 413.507812 703.460938 413.382812 703.652344 413.253906 C 703.90625 413.0625 704.097656 412.871094 704.289062 412.683594 C 704.414062 412.554688 704.480469 412.429688 704.605469 412.300781 C 704.734375 412.046875 704.859375 411.855469 704.925781 411.601562 C 704.988281 411.347656 705.113281 411.15625 705.113281 410.902344 C 705.113281 410.835938 705.113281 410.773438 705.113281 410.710938 C 705.113281 410.582031 705.113281 410.519531 705.113281 410.394531 C 705.113281 410.203125 705.113281 410.011719 705.113281 409.820312 C 705.113281 409.691406 704.988281 409.628906 704.988281 409.503906 Z M 705.179688 409.628906 " fill-opacity="1" fill-rule="nonzero"/><path fill="#000000" d="M 645.652344 431.824219 C 645.652344 431.824219 644.824219 432.144531 645.777344 431.824219 Z M 645.652344 431.824219 " fill-opacity="1" fill-rule="nonzero"/><path fill="#000000" d="M 927.386719 686.15625 C 916.066406 700.085938 904.9375 714.140625 893.746094 728.195312 C 882.550781 742.25 871.292969 756.242188 859.972656 770.234375 C 848.589844 784.355469 837.015625 798.410156 825.1875 812.210938 C 824.042969 813.546875 822.832031 814.945312 821.6875 816.28125 C 813.675781 825.566406 805.535156 834.789062 797.265625 843.820312 C 796.121094 845.027344 795.230469 846.363281 795.105469 848.082031 C 794.976562 849.542969 795.550781 851.386719 796.695312 852.46875 C 799.046875 854.628906 803.371094 854.949219 805.660156 852.40625 C 820.035156 836.757812 833.960938 820.734375 847.636719 804.453125 C 860.738281 788.871094 873.519531 773.035156 886.113281 757.070312 C 898.703125 741.105469 911.234375 725.078125 923.824219 709.117188 C 936.355469 693.152344 949.011719 677.316406 961.730469 661.480469 C 968.152344 653.46875 974.640625 645.453125 981.253906 637.566406 C 984.5625 633.5625 987.933594 629.617188 991.300781 625.675781 C 992.128906 624.71875 992.957031 623.765625 993.78125 622.8125 C 994.039062 622.558594 994.226562 622.304688 994.484375 621.984375 C 994.929688 621.476562 995.4375 620.90625 995.882812 620.394531 C 997.597656 618.425781 999.316406 616.453125 1001.097656 614.480469 C 1002.8125 612.574219 1004.53125 610.664062 1006.25 608.757812 C 1007.074219 607.867188 1007.648438 606.976562 1007.773438 605.769531 C 1007.839844 604.6875 1007.457031 603.414062 1006.628906 602.652344 C 1006.3125 602.398438 1005.929688 602.207031 1005.546875 602.015625 C 1005.546875 601.699219 1005.546875 601.316406 1005.421875 601 C 1004.785156 599.21875 1002.625 598.074219 1000.777344 598.644531 C 998.171875 599.472656 995.5625 600.234375 993.019531 601.0625 C 990.15625 601.953125 987.421875 603.222656 984.625 604.367188 C 979.601562 606.46875 974.640625 608.695312 969.742188 610.984375 L 940.296875 624.785156 C 920.773438 633.941406 901.25 643.101562 881.722656 652.257812 C 862.199219 661.417969 842.675781 670.574219 823.152344 679.796875 C 803.5625 689.019531 783.976562 698.175781 764.386719 707.398438 C 744.800781 716.621094 725.210938 725.78125 705.625 735 C 703.207031 736.144531 700.855469 737.226562 698.4375 738.371094 C 697.101562 739.007812 696.085938 740.40625 695.703125 741.871094 C 693.605469 741.359375 691.378906 742.0625 690.105469 743.90625 C 679.484375 759.804688 668.800781 775.703125 658.117188 791.539062 C 647.367188 807.375 636.683594 823.210938 625.9375 839.113281 C 615.1875 854.949219 604.441406 870.785156 593.820312 886.683594 C 583.199219 902.585938 572.578125 918.484375 562.019531 934.449219 C 551.464844 950.285156 540.90625 966.183594 530.347656 982.082031 L 526.40625 988.0625 C 524.5625 990.859375 525.070312 995.183594 528.25 996.773438 C 531.113281 998.238281 534.609375 997.539062 536.773438 995.183594 C 553.5625 987.808594 570.351562 980.238281 586.949219 972.414062 C 604.121094 964.339844 621.167969 956.070312 638.082031 947.546875 C 655 939.027344 671.789062 930.25 688.515625 921.28125 C 705.113281 912.316406 721.648438 903.15625 737.996094 893.742188 C 754.464844 884.332031 770.683594 874.601562 786.773438 864.550781 C 788.9375 863.214844 791.097656 861.753906 793.195312 860.289062 C 794.785156 859.144531 794.914062 856.664062 793.832031 855.203125 C 792.6875 853.613281 790.398438 853.296875 788.683594 854.183594 C 784.484375 856.410156 780.414062 858.957031 776.34375 861.371094 C 772.273438 863.789062 768.265625 866.140625 764.195312 868.558594 C 755.992188 873.328125 747.914062 878.226562 739.710938 882.996094 C 723.367188 892.472656 706.894531 901.757812 690.359375 910.789062 C 673.761719 919.820312 657.097656 928.660156 640.246094 937.308594 C 623.390625 945.957031 606.410156 954.355469 589.304688 962.558594 C 574.613281 969.617188 559.796875 976.421875 544.914062 983.101562 C 552.988281 970.890625 561.003906 958.679688 569.015625 946.46875 C 579.511719 930.503906 590.003906 914.539062 600.496094 898.515625 C 610.992188 882.550781 621.355469 866.523438 631.785156 850.433594 C 642.152344 834.40625 652.582031 818.378906 662.949219 802.289062 C 673.316406 786.324219 683.683594 770.363281 694.113281 754.398438 C 695.449219 752.425781 696.71875 750.390625 698.054688 748.421875 C 698.246094 748.101562 698.375 747.722656 698.5 747.402344 C 699.964844 747.976562 701.554688 747.910156 703.144531 747.210938 C 722.792969 738.117188 742.382812 729.023438 762.035156 719.929688 C 781.621094 710.832031 801.210938 701.800781 820.734375 692.707031 C 840.386719 683.613281 859.972656 674.519531 879.625 665.421875 C 899.214844 656.328125 918.738281 647.234375 938.328125 638.140625 C 948.054688 633.625 957.785156 629.109375 967.515625 624.59375 C 972.414062 622.304688 977.375 620.015625 982.273438 617.660156 C 984.6875 616.453125 987.167969 615.308594 989.585938 614.035156 C 989.710938 613.972656 989.902344 613.910156 990.03125 613.78125 C 981 623.640625 972.03125 633.496094 963.257812 643.546875 C 951.109375 657.472656 939.152344 671.65625 927.515625 686.03125 Z M 927.386719 686.15625 " fill-opacity="1" fill-rule="nonzero"/></svg>
