<svg xmlns="http://www.w3.org/2000/svg" xmlns:xlink="http://www.w3.org/1999/xlink" width="2000" zoomAndPan="magnify" viewBox="0 0 1500 1499.999933" height="2000" preserveAspectRatio="xMidYMid meet" version="1.0"><defs><clipPath id="505e5aa2cd"><path d="M 207 284 L 1310 284 L 1310 1216.921875 L 207 1216.921875 Z M 207 284 " clip-rule="nonzero"/></clipPath></defs><path fill="#000000" d="M 735.78125 671.042969 C 755.425781 659.453125 775.070312 647.722656 794.007812 635 C 794.261719 634.871094 794.480469 634.695312 794.664062 634.476562 C 794.847656 634.261719 794.980469 634.015625 795.066406 633.742188 C 795.15625 633.472656 795.183594 633.195312 795.160156 632.910156 C 795.136719 632.625 795.058594 632.359375 794.925781 632.105469 C 794.796875 631.851562 794.621094 631.632812 794.402344 631.449219 C 794.1875 631.265625 793.941406 631.132812 793.667969 631.046875 C 793.398438 630.960938 793.121094 630.929688 792.835938 630.953125 C 792.550781 630.976562 792.285156 631.054688 792.03125 631.1875 C 771.75 641.503906 751.890625 652.949219 732.246094 664.328125 C 727.722656 666.941406 731.257812 673.726562 735.78125 671.042969 Z M 735.78125 671.042969 " fill-opacity="1" fill-rule="nonzero"/><path fill="#000000" d="M 812.3125 512.890625 C 817.1875 516.355469 823.195312 508.15625 817.894531 504.554688 C 806.730469 496.921875 795.421875 489.5 784.117188 482.011719 C 779.875 479.183594 775.210938 485.828125 779.453125 489.078125 C 790.40625 496.992188 801.289062 505.046875 812.3125 512.890625 Z M 812.3125 512.890625 " fill-opacity="1" fill-rule="nonzero"/><path fill="#000000" d="M 955.621094 457.914062 C 957.457031 447.03125 959.226562 436.289062 960.640625 425.335938 C 961.347656 420.109375 953.574219 420.742188 952.582031 425.335938 C 950.390625 436.148438 948.554688 446.960938 946.789062 457.84375 C 945.871094 463.425781 954.773438 463.074219 955.621094 457.914062 Z M 955.621094 457.914062 " fill-opacity="1" fill-rule="nonzero"/><path fill="#000000" d="M 1070.523438 534.019531 C 1091.230469 526.460938 1111.582031 517.910156 1131.863281 509.359375 C 1139.421875 506.25 1133.769531 495.71875 1126.351562 498.972656 C 1106.632812 507.519531 1086.847656 516 1067.484375 525.46875 C 1062.398438 527.800781 1065.152344 536 1070.523438 534.019531 Z M 1070.523438 534.019531 " fill-opacity="1" fill-rule="nonzero"/><path fill="#000000" d="M 1042.964844 647.015625 C 1037.523438 644.824219 1031.375 652.738281 1037.382812 655.425781 C 1055.613281 663.621094 1073.917969 671.722656 1092.289062 679.734375 C 1098.71875 682.558594 1105.644531 672.667969 1098.789062 669.980469 C 1080.277344 662.207031 1061.621094 654.578125 1042.964844 647.015625 Z M 1042.964844 647.015625 " fill-opacity="1" fill-rule="nonzero"/><g clip-path="url(#505e5aa2cd)"><path fill="#000000" d="M 1302.027344 885.722656 C 1255.597656 883.53125 1208.675781 883.675781 1161.683594 884.945312 C 1140.484375 773.929688 1047.699219 707.644531 949.6875 701.214844 C 983.695312 666.414062 1013.726562 628.46875 1039.785156 587.375 C 1040.011719 587.078125 1040.210938 586.765625 1040.382812 586.429688 C 1040.550781 586.097656 1040.691406 585.753906 1040.796875 585.394531 C 1040.902344 585.039062 1040.976562 584.675781 1041.015625 584.304688 C 1041.054688 583.929688 1041.058594 583.558594 1041.03125 583.1875 C 1041.003906 582.816406 1040.9375 582.449219 1040.84375 582.089844 C 1040.746094 581.726562 1040.617188 581.378906 1040.457031 581.042969 C 1040.296875 580.707031 1040.105469 580.386719 1039.886719 580.085938 C 1039.664062 579.78125 1039.421875 579.503906 1039.148438 579.246094 C 1039.765625 579.085938 1040.351562 578.847656 1040.902344 578.53125 C 1041.457031 578.210938 1041.957031 577.824219 1042.40625 577.371094 C 1042.855469 576.917969 1043.234375 576.414062 1043.546875 575.855469 C 1043.855469 575.300781 1044.089844 574.710938 1044.242188 574.089844 C 1044.394531 573.472656 1044.460938 572.84375 1044.441406 572.207031 C 1044.425781 571.566406 1044.320312 570.945312 1044.132812 570.335938 C 1043.949219 569.722656 1043.683594 569.148438 1043.339844 568.613281 C 1042.996094 568.074219 1042.589844 567.589844 1042.117188 567.164062 C 1022.058594 546.789062 999.609375 529.523438 974.773438 515.363281 C 974.742188 514.859375 974.660156 514.363281 974.519531 513.875 C 974.382812 513.386719 974.195312 512.917969 973.960938 512.472656 C 973.722656 512.023438 973.4375 511.605469 973.113281 511.21875 C 972.785156 510.832031 972.417969 510.484375 972.019531 510.175781 C 971.617188 509.867188 971.183594 509.605469 970.726562 509.390625 C 970.269531 509.175781 969.792969 509.011719 969.296875 508.898438 C 968.804688 508.785156 968.304688 508.726562 967.796875 508.71875 C 967.289062 508.714844 966.789062 508.761719 966.292969 508.863281 C 933.292969 515.292969 898.242188 521.9375 867.359375 536.351562 C 866.777344 536.601562 866.332031 537.003906 866.015625 537.554688 C 865.429688 537.246094 864.804688 537.050781 864.144531 536.964844 C 863.484375 536.882812 862.832031 536.914062 862.183594 537.0625 C 861.535156 537.210938 860.933594 537.46875 860.378906 537.832031 C 859.824219 538.195312 859.347656 538.644531 858.949219 539.179688 C 846.785156 555.207031 837.105469 572.613281 829.90625 591.402344 C 829.796875 591.65625 829.738281 591.925781 829.722656 592.203125 C 829.710938 592.480469 829.746094 592.753906 829.828125 593.019531 C 829.914062 593.285156 830.042969 593.527344 830.214844 593.75 C 830.382812 593.96875 830.589844 594.152344 830.824219 594.296875 C 830.539062 594.398438 830.265625 594.535156 830.007812 594.703125 C 829.753906 594.867188 829.519531 595.0625 829.308594 595.285156 C 829.101562 595.507812 828.921875 595.753906 828.769531 596.019531 C 828.617188 596.285156 828.503906 596.566406 828.417969 596.863281 C 828.335938 597.15625 828.289062 597.457031 828.277344 597.761719 C 828.265625 598.066406 828.292969 598.371094 828.355469 598.671875 C 828.417969 598.96875 828.511719 599.257812 828.644531 599.535156 C 828.773438 599.8125 828.9375 600.066406 829.128906 600.304688 C 856.445312 636.140625 886.339844 669.683594 918.804688 700.933594 C 914.605469 701.167969 910.417969 701.515625 906.238281 701.984375 C 902.058594 702.449219 897.894531 703.03125 893.75 703.730469 C 889.601562 704.425781 885.476562 705.238281 881.375 706.167969 C 877.273438 707.09375 873.199219 708.136719 869.15625 709.289062 C 865.113281 710.441406 861.105469 711.707031 857.132812 713.082031 C 853.15625 714.460938 849.226562 715.945312 845.335938 717.542969 C 841.441406 719.136719 837.601562 720.839844 833.804688 722.648438 C 830.007812 724.457031 826.265625 726.371094 822.574219 728.386719 C 818.882812 730.402344 815.253906 732.519531 811.679688 734.738281 C 808.109375 736.957031 804.601562 739.273438 801.15625 741.6875 C 797.714844 744.101562 794.339844 746.609375 791.035156 749.210938 C 787.730469 751.8125 784.503906 754.503906 781.347656 757.285156 C 778.195312 760.066406 775.121094 762.933594 772.125 765.886719 C 769.128906 768.835938 766.21875 771.871094 763.394531 774.984375 C 760.566406 778.097656 757.828125 781.289062 755.179688 784.554688 C 752.53125 787.820312 749.972656 791.15625 747.511719 794.566406 C 747.171875 794.953125 746.902344 795.378906 746.691406 795.851562 C 746.480469 796.320312 746.347656 796.808594 746.28125 797.320312 C 746.21875 797.828125 746.234375 798.335938 746.320312 798.84375 C 746.410156 799.347656 746.570312 799.832031 746.804688 800.289062 C 742.207031 808.597656 738.117188 817.148438 734.53125 825.9375 C 730.945312 834.730469 727.886719 843.703125 725.355469 852.851562 C 722.828125 862.003906 720.84375 871.273438 719.410156 880.660156 C 717.972656 890.046875 717.09375 899.484375 716.769531 908.972656 C 676.914062 912.082031 637.132812 916.039062 597.628906 920.984375 C 535.371094 715.488281 518.484375 500.808594 470.429688 292.0625 C 469.300781 287.328125 461.808594 289.375 462.726562 293.96875 C 505.976562 503.070312 517.707031 718.597656 578.832031 924.023438 C 412.058594 937.027344 258.433594 827.496094 229.035156 660.015625 C 200.273438 494.09375 303.589844 343.648438 460.324219 292.980469 C 465.765625 291.214844 464.566406 283.085938 458.699219 284.5 C 295.320312 323.578125 187.273438 488.9375 210.449219 654.082031 C 211.25 659.410156 212.175781 664.714844 213.226562 669.996094 C 214.277344 675.277344 215.453125 680.535156 216.757812 685.761719 C 218.058594 690.988281 219.484375 696.179688 221.035156 701.339844 C 222.582031 706.496094 224.253906 711.617188 226.046875 716.695312 C 227.839844 721.773438 229.753906 726.808594 231.785156 731.796875 C 233.820312 736.785156 235.972656 741.722656 238.238281 746.609375 C 240.507812 751.492188 242.890625 756.320312 245.390625 761.09375 C 247.886719 765.867188 250.496094 770.578125 253.21875 775.222656 C 255.941406 779.871094 258.773438 784.453125 261.714844 788.964844 C 264.65625 793.476562 267.703125 797.917969 270.855469 802.285156 C 274.007812 806.652344 277.261719 810.941406 280.621094 815.15625 C 283.976562 819.367188 287.429688 823.5 290.984375 827.546875 C 294.539062 831.59375 298.1875 835.554688 301.929688 839.429688 C 305.671875 843.304688 309.503906 847.085938 313.425781 850.777344 C 317.347656 854.46875 321.355469 858.066406 325.449219 861.566406 C 329.542969 865.066406 333.71875 868.46875 337.976562 871.769531 C 342.230469 875.074219 346.5625 878.273438 350.972656 881.367188 C 355.378906 884.460938 359.859375 887.453125 364.410156 890.332031 C 368.960938 893.214844 373.578125 895.988281 378.257812 898.648438 C 382.941406 901.3125 387.6875 903.859375 392.488281 906.296875 C 397.292969 908.734375 402.152344 911.054688 407.066406 913.257812 C 411.984375 915.460938 416.945312 917.546875 421.960938 919.515625 C 426.976562 921.484375 432.035156 923.332031 437.136719 925.058594 C 442.238281 926.785156 447.378906 928.390625 452.554688 929.875 C 457.734375 931.355469 462.945312 932.714844 468.1875 933.949219 C 473.433594 935.183594 478.703125 936.289062 484 937.273438 C 489.292969 938.257812 494.609375 939.113281 499.949219 939.84375 C 505.285156 940.570312 510.636719 941.175781 516 941.648438 C 521.367188 942.125 526.742188 942.46875 532.121094 942.6875 C 537.503906 942.90625 542.890625 942.996094 548.273438 942.960938 C 553.660156 942.921875 559.042969 942.757812 564.421875 942.460938 C 569.800781 942.167969 575.167969 941.746094 580.527344 941.195312 C 581.488281 941.054688 582.410156 940.785156 583.292969 940.386719 C 584.179688 939.988281 584.992188 939.480469 585.734375 938.855469 C 586.476562 938.230469 587.121094 937.519531 587.664062 936.714844 C 588.207031 935.914062 588.632812 935.050781 588.9375 934.128906 C 590.050781 934.117188 591.136719 933.929688 592.1875 933.5625 C 594.785156 956.269531 598.597656 978.769531 603.625 1001.0625 C 608.652344 1023.355469 614.863281 1045.3125 622.261719 1066.933594 C 629.65625 1088.558594 638.191406 1109.722656 647.871094 1130.421875 C 657.550781 1151.125 668.316406 1171.246094 680.167969 1190.785156 C 680.59375 1191.503906 681.121094 1192.132812 681.753906 1192.671875 C 682.386719 1193.214844 683.085938 1193.644531 683.859375 1193.957031 C 684.632812 1194.269531 685.433594 1194.449219 686.265625 1194.5 C 687.09375 1194.550781 687.914062 1194.464844 688.71875 1194.25 C 689.179688 1194.996094 689.792969 1195.582031 690.5625 1196.007812 C 691.328125 1196.4375 692.148438 1196.648438 693.027344 1196.652344 C 871.8125 1207.957031 1051.234375 1210.785156 1230.085938 1216.226562 C 1242.03125 1216.578125 1244.222656 1198.207031 1231.5 1197.851562 C 1053.070312 1192.554688 874.355469 1184.921875 695.785156 1185.558594 C 695.636719 1184.628906 695.332031 1183.757812 694.863281 1182.941406 C 683.445312 1163.535156 672.878906 1143.671875 663.167969 1123.355469 C 653.453125 1103.039062 644.628906 1082.34375 636.695312 1061.269531 C 628.761719 1040.195312 621.742188 1018.816406 615.644531 997.140625 C 609.546875 975.464844 604.390625 953.566406 600.171875 931.445312 C 715.003906 926.921875 829.765625 916.746094 944.667969 911.871094 C 1060.914062 906.992188 1177.867188 909.609375 1294.109375 902.402344 C 1270.648438 988.046875 1251.710938 1075.105469 1228.390625 1160.824219 C 1225.496094 1171.425781 1241.183594 1174.957031 1244.363281 1164.992188 C 1271.710938 1081.042969 1296.160156 989.460938 1304.144531 901.058594 C 1311.636719 897.738281 1312.058594 886.21875 1302.027344 885.722656 Z M 977.597656 589.140625 C 960.382812 577.175781 942.601562 566.128906 924.246094 555.996094 C 957.035156 556.703125 986.925781 570.132812 1017.808594 579.671875 C 1011.519531 581.863281 1005.371094 584.335938 999.152344 586.738281 C 992.933594 589.140625 986.503906 591.117188 980.285156 593.804688 C 980.265625 592.847656 980.019531 591.957031 979.539062 591.128906 C 979.0625 590.296875 978.417969 589.636719 977.597656 589.140625 Z M 976.328125 608.007812 C 977.605469 607.246094 978.546875 606.183594 979.152344 604.828125 C 992.421875 602.070312 1005.425781 598.371094 1018.160156 593.734375 C 998.941406 620.089844 979.4375 646.097656 959.226562 671.464844 C 966.984375 650.882812 972.59375 629.730469 976.042969 608.007812 Z M 934.351562 548.367188 C 947.140625 541.300781 959.792969 533.457031 971.804688 525.117188 C 986.714844 539.25 1002.472656 552.394531 1017.667969 566.246094 C 990.601562 556.546875 962.734375 550.585938 934.070312 548.367188 Z M 918.453125 549.496094 L 917.957031 549.496094 C 917.75 549.019531 917.484375 548.582031 917.15625 548.179688 C 916.828125 547.777344 916.453125 547.425781 916.03125 547.125 C 915.605469 546.828125 915.148438 546.589844 914.660156 546.417969 C 914.171875 546.242188 913.667969 546.140625 913.152344 546.105469 C 901.773438 544.832031 890.890625 542.429688 879.796875 540.167969 C 903.894531 536.210938 927.707031 530.277344 951.804688 526.035156 C 940.144531 533.3125 929.121094 541.511719 918.167969 549.496094 Z M 921.914062 564.125 C 936.542969 576.277344 952.230469 587.585938 967.988281 598.328125 C 948.21875 599.449219 928.597656 601.804688 909.125 605.394531 C 914 592.320312 917.746094 577.976562 921.632812 564.125 Z M 904.882812 614.933594 C 925.164062 612.390625 945.515625 611.46875 965.796875 609.5625 C 955.832031 635.992188 947.988281 663.339844 938.238281 689.910156 C 930.039062 663.707031 918.425781 639.113281 903.398438 616.132812 C 903.847656 615.78125 904.25 615.382812 904.601562 614.933594 Z M 868.136719 544.265625 C 868.429688 544.644531 868.78125 544.953125 869.199219 545.1875 C 879.265625 550.894531 890.007812 554.710938 901.421875 556.632812 C 893.222656 559.8125 885.097656 563.277344 876.96875 566.597656 C 864.898438 570.371094 853.613281 575.789062 843.121094 582.851562 C 842.699219 583.191406 842.417969 583.621094 842.269531 584.144531 C 842.125 584.664062 842.144531 585.179688 842.328125 585.691406 C 842.507812 586.199219 842.824219 586.609375 843.269531 586.917969 C 843.710938 587.226562 844.207031 587.378906 844.746094 587.375 C 857.0625 585.417969 868.839844 581.742188 880.078125 576.347656 C 889.125 572.886719 898.382812 569.28125 907.355469 565.960938 C 902.414062 578.414062 898.125 591.085938 894.496094 603.980469 C 877.042969 596.914062 857.46875 593.664062 839.800781 587.9375 C 839.496094 587.867188 839.1875 587.867188 838.882812 587.9375 C 848.988281 573.734375 857.46875 558.328125 867.855469 544.265625 Z M 839.871094 598.890625 C 857.820312 606.382812 877.535156 615.640625 896.402344 618.183594 L 897.179688 618.183594 C 904.246094 638.039062 912.375 657.613281 919.933594 677.402344 C 894.746094 649.578125 867.9375 623.40625 839.519531 598.890625 Z M 940.074219 895.6875 C 870.398438 899.292969 800.15625 902.753906 730.199219 907.839844 C 730.578125 897.410156 731.667969 887.054688 733.464844 876.773438 C 735.261719 866.488281 737.746094 856.375 740.921875 846.433594 C 744.101562 836.492188 747.9375 826.808594 752.4375 817.390625 C 756.9375 807.972656 762.054688 798.902344 767.792969 790.183594 C 768.128906 789.605469 768.386719 788.992188 768.570312 788.347656 C 884.390625 650.972656 1112.429688 709.765625 1148.679688 885.371094 C 1078.507812 887.632812 1008.621094 892.222656 939.722656 895.757812 Z M 940.074219 895.6875 " fill-opacity="1" fill-rule="nonzero"/></g></svg>
